<?xml version="1.0" encoding="utf-8"?>
<!-- Generator: Adobe Illustrator 25.4.1, SVG Export Plug-In . SVG Version: 6.00 Build 0)  -->
<svg version="1.1" id="Calque_1" xmlns="http://www.w3.org/2000/svg" xmlns:xlink="http://www.w3.org/1999/xlink" x="0px" y="0px"
	 viewBox="0 0 796 440" style="enable-background:new 0 0 796 440;" xml:space="preserve">
<style type="text/css">
	.st0{fill:#FFFFFF;}
</style>
<path d="M340.1,285.9c-10.5,12.9-19.6,24.9-29.6,36.1c-22,24.7-70.9,18.9-80.7-21.8c-0.9-3.7-2.2-7.2-2.6-8.2
	c-10.6,8.1-20.7,18-32.7,24.6c-17.3,9.5-37.1,0.5-43.4-18.3c-3.5-10.2-6-20.7-12.6-32.1c-5.9,9.8-11.8,19.7-17.6,29.6
	c-9.5,16.2-20.4,30.7-39.9,35.9c-31.5,8.5-52.7-4.3-59.8-36.5c-10.1-45.7-7.8-91,2.5-136.6C32.1,121,42.3,85.2,70.2,56.8
	c17.9-18.2,39.5-22.1,61.5-10.2c7.5,4.1,16.4,6.1,23.4,10.9c4.5,3.1,9.2,9.4,9.6,14.7c2.7,29.6,5.2,59.3,5.7,89
	c0.5,26.8-2.7,53.7-2.1,80.5c0.4,17,4.7,34,7.8,54.6c8.3-6.2,14-8.6,16.9-12.9c14.2-21.3,27.2-42.8,25.7-70.3
	c-2.6-48.5-1.1-96.8,14.1-143.5c4.2-13.1,9.5-25.7,15.8-37.9c2.6-4.9,7.9-10.5,13.8-10.5c5.8,0,13,10,13.6,16
	c1.8,17.7,0.6,35.8,0.9,53.7c0.9,46.2-15.1,89.3-23.5,133.8c-4.2,22.1-1.2,46.2,2.2,68.8c2.8,18.2,19.9,23.7,32.9,10.4
	c12.9-13.1,25.2-29.3,30.9-46.4c8.5-25.8,11.5-53.4,15.9-80.5c2.7-16.4,3.7-33,5.7-49.4c0.3-2.8,1.5-5.5,2.4-8.1
	c3-9,9-16.2,18.6-13.1c8.5,2.8,12,10.7,10.1,20.9c-9.7,50.7-9.2,101.7-1.7,152.6c0.7,4.8,3,9.3,5.5,13.8c3.4,6,10.8,8.4,17,5.5
	c5.9-2.8,11.7-5.6,16.7-9.4c5.8-4.3,8.7-12.2,13.4-18.2c1.8-2.4,5.6-6,7.1-5.4c3.3,1.5,5.8,4.1,7.2,7.5c1.3,3.8,2.4,9.5,0.5,12.1
	c-9.5,13.2-17.7,28.9-30.5,37.9c-25.1,17.5-53.6,5.4-63-23.7C342.8,295.2,341.5,290.7,340.1,285.9z"/>
<path d="M703.7,210.2c1.4-2.7,4.8-3.8,7.5-2.4c1,0.5,1.8,1.3,2.3,2.2c11.4,20.8,0.6,56.6-22.3,81c-29.1,31-79.2,37.6-107.7-8.3
	c-5.8,5.5-11.7,10.8-17.2,16.4c-21.3,21.7-46.5,25-74.5,16.1c-26.6-8.5-38.8-28.9-41.5-54.3c-4.4-41.5-4.9-83.2,4.5-124.4
	c5.6-24.6,21.3-40.8,42.8-51.7c4.3-2.2,11.5-2,15.9,0.1c13.2,6.5,21.6,30.1,15.8,43.5c-1.1,2.5-3.2,4.6-5.9,7.1
	c-2,1.9-5.2,1.8-7.1-0.2c-0.7-0.7-1.1-1.6-1.3-2.5c-1-5.3-1.7-9.2-2.8-13c-0.9-3-2-6-3.2-8.9c-1.6-3.9-6-5.7-9.8-4.2
	c-0.6,0.2-1.1,0.5-1.6,0.9c-10.1,7.3-16.6,16.7-18.2,27.9c-3.6,25.2-5.6,50.7-5.9,76.2c-0.1,17.5,1.6,34.9,5.1,52
	c4.9,24.9,24.6,35,49.1,26.8c27.6-9.2,43.1-35.7,41.8-64.7c-1.2-27.2-0.2-54.4,2.8-81.4c2.5-22.3,22.9-31.3,39.9-41.4
	c7.1-4.2,17.5,5.5,17.1,17.2c-0.4,12.8-2.2,25.4-5.2,37.8c-6.2,25.2-13.1,50.2-20.6,75c-6,20.1,1.6,35.3,15.6,48.3
	c9.6,9,25.4,8.4,39.7-1.2c22.4-15.1,38-35,42.1-62.7C701.6,214.8,702.5,212.4,703.7,210.2z"/>
<path d="M431.6,380.8c32.4-3.1,64.6-9.3,97-13c6.6-0.7,14.5,2.5,20.3,6.3c2.8,1.9,3.5,9.4,2.6,13.9c-0.5,2.5-6,5.4-9.4,5.7
	c-52.5,4.8-105.1,9.1-157.7,13.8c-48.9,4.4-97.8,9.2-146.7,13.5c-33,2.8-65.9,5.3-98.9,7c-2.1,0.1-4.4-0.8-6.6-2.1
	c-3.7-2.1-5-6.8-2.9-10.5c0.2-0.4,0.4-0.7,0.7-1c1.1-1.4,2.4-2.7,3.8-3.7c3.7-2.6,8.7-4,13.2-4.6c22.6-2.9,45.2-5.3,67.8-7.9
	C214.8,398.7,359.4,387.7,431.6,380.8z"/>
<path d="M780.3,307.2c-5.6,6.9-15.7,8-22.6,2.4c-0.4-0.3-0.8-0.7-1.2-1c-4.2-4.2-6.7-9.2-6.2-13.9c0.7-7.5,3.6-13.9,13.1-13.4
	c11,0.6,24,10.8,21.4,18.4C783.8,302.4,782.3,305,780.3,307.2z"/>
<path d="M374.2,62c-0.7,2.8-6.5,6.2-10.8,7c-8.7,1.6-18.5-5.2-18.8-12.7c-0.2-5.6,0.8-12.2,6.3-16.7c4.8-4,11.5-4.5,16.8-1.2
	C377.1,44.4,375.5,56.9,374.2,62z"/>
<path class="st0" d="M130.9,128.6c2.5,45.2-7.9,92.3-25.1,137.6c-5.6,14.7-16.7,28.7-28.6,39.3c-13,11.6-25.1,5.9-29.1-11.1
	c-15.2-63.8-12.6-126.8,11.7-188c7.8-19.6,18.3-39.1,41.1-46c17.8-5.3,32.4,6.1,32,24.5C132.6,98.3,131.7,111.5,130.9,128.6z"/>
</svg>
