<svg id="Calque_1" data-name="Calque 1" xmlns="http://www.w3.org/2000/svg" viewBox="0 0 1080 1080"><defs><style>.cls-1{fill:#fff;}</style></defs><path d="M488.08,607.91c-10.52,12.88-19.64,24.89-29.64,36.11-22,24.69-70.87,18.94-80.7-21.75-.88-3.65-2.24-7.2-2.57-8.22-10.56,8.1-20.72,18-32.73,24.6-17.34,9.47-37.07.45-43.43-18.27-3.46-10.19-6-20.72-12.56-32.12-5.89,9.85-11.82,19.68-17.64,29.57-9.52,16.18-20.42,30.66-39.89,35.88-31.52,8.45-52.7-4.29-59.83-36.55-10.11-45.72-7.8-91,2.5-136.64,8.48-37.55,18.72-73.29,46.65-101.71,17.9-18.22,39.49-22.14,61.55-10.16,7.55,4.1,16.4,6.06,23.36,10.86,4.55,3.13,9.16,9.42,9.63,14.66,2.7,29.6,5.17,59.29,5.72,89,.51,26.82-2.66,53.71-2.07,80.53.38,17,4.67,34,7.76,54.64,8.3-6.19,14-8.59,16.85-12.88,14.18-21.28,27.16-42.81,25.68-70.34-2.62-48.46-1.11-96.77,14.09-143.5a244,244,0,0,1,15.76-37.9c2.59-4.92,7.91-10.54,13.84-10.54,5.75,0,12.95,10,13.57,16,1.84,17.74.57,35.78.94,53.69.94,46.22-15.09,89.28-23.5,133.78-4.17,22.07-1.25,46.15,2.17,68.76,2.75,18.16,19.87,23.69,32.92,10.4,12.87-13.13,25.22-29.26,30.88-46.37,8.53-25.76,11.47-53.44,15.93-80.45C486,482.64,487,466,489,449.58c.33-2.77,1.52-5.45,2.41-8.14,3-9,9-16.24,18.65-13.14,8.53,2.75,12,10.73,10.06,20.89-9.66,50.71-9.24,101.7-1.69,152.56.7,4.77,3,9.31,5.49,13.8a13.08,13.08,0,0,0,17,5.46c5.87-2.75,11.65-5.63,16.72-9.44,5.76-4.34,8.74-12.25,13.38-18.24,1.84-2.39,5.57-6,7.08-5.39a13.64,13.64,0,0,1,7.16,7.46c1.32,3.75,2.4,9.47.49,12.14-9.45,13.24-17.71,28.93-30.5,37.87-25.11,17.54-53.59,5.42-63-23.74C490.77,617.24,489.52,612.74,488.08,607.91Z"/><path d="M851.73,532.18a5.6,5.6,0,0,1,9.86-.16c11.41,20.79.64,56.57-22.33,81.05-29.08,31-79.21,37.58-107.68-8.34-5.83,5.54-11.69,10.8-17.2,16.4-21.35,21.68-46.46,25-74.52,16.1-26.63-8.49-38.75-28.93-41.46-54.3-4.44-41.5-4.93-83.19,4.46-124.4,5.59-24.57,21.27-40.79,42.82-51.72,4.29-2.18,11.53-2.05,15.89.1,13.18,6.49,21.58,30.08,15.85,43.54-1.07,2.5-3.17,4.57-5.93,7.11a5,5,0,0,1-8.34-2.78c-1-5.26-1.7-9.16-2.78-13a86.8,86.8,0,0,0-3.22-8.93,7.56,7.56,0,0,0-11.4-3.33c-10.11,7.3-16.56,16.71-18.21,27.86a588.54,588.54,0,0,0-5.88,76.21,250.11,250.11,0,0,0,5.11,52c4.91,24.94,24.64,35,49.13,26.83,27.62-9.17,43.06-35.71,41.78-64.73a520.92,520.92,0,0,1,2.85-81.41C723.05,444,743.4,435,760.38,424.91c7.06-4.21,17.48,5.46,17.11,17.2a184.34,184.34,0,0,1-5.24,37.81c-6.17,25.17-13.14,50.17-20.57,75-6,20.06,1.64,35.35,15.6,48.35,9.61,9,25.37,8.43,39.67-1.22,22.37-15.1,38-34.95,42.12-62.67A23.33,23.33,0,0,1,851.73,532.18Z"/><path d="M579.57,702.76c32.44-3.14,64.57-9.32,97-13,6.59-.74,14.55,2.48,20.32,6.26,2.85,1.87,3.45,9.41,2.57,13.9-.5,2.5-6,5.42-9.44,5.74-52.54,4.83-105.13,9.14-157.69,13.83-48.91,4.36-97.77,9.25-146.69,13.48-32.95,2.85-65.93,5.26-98.94,7-2.15.11-4.35-.82-6.56-2.07a7.71,7.71,0,0,1-2.21-11.53,19,19,0,0,1,3.83-3.73c3.7-2.6,8.66-4,13.24-4.62,22.56-2.87,45.18-5.29,67.77-7.86C362.8,720.72,507.41,709.74,579.57,702.76Z"/><path d="M928.35,629.22a16.08,16.08,0,0,1-23.79,1.33c-4.19-4.16-6.65-9.2-6.19-13.94.72-7.5,3.58-13.9,13.11-13.37,11,.61,24,10.81,21.39,18.42A25.43,25.43,0,0,1,928.35,629.22Z"/><path d="M522.23,384c-.71,2.76-6.45,6.17-10.8,7-8.66,1.61-18.55-5.21-18.77-12.73-.17-5.57.82-12.19,6.26-16.73a14.35,14.35,0,0,1,16.79-1.18C525.14,366.36,523.55,378.89,522.23,384Z"/><path class="cls-1" d="M278.91,450.64c2.48,45.18-7.88,92.29-25.07,137.64C248.27,603,237.17,617,225.28,627.55c-13,11.61-25.07,5.9-29.13-11.08-15.25-63.81-12.61-126.82,11.71-188,7.79-19.6,18.31-39.12,41.12-46,17.78-5.32,32.44,6.15,32,24.45C280.57,420.26,279.73,433.49,278.91,450.64Z"/></svg>