<svg id="Calque_2" data-name="Calque 2" xmlns="http://www.w3.org/2000/svg" viewBox="0 0 488.68 488.68"><defs><style>.cls-1{fill:#1d1d1b;}</style></defs><path class="cls-1" d="M378.79,145.88c-5-22.95-25.73-40.59-48.38-45-34.5-6.72-71.79-5.09-97.77,21.68a67.67,67.67,0,0,0-18.92,45.14c-.33,19.86,10.64,32,22.62,46.4.59.71,24.3,30,48.73,59.46l-8.75,12.31c-5.15-6.76-75.1-92.12-86.13-109-3.27-5,.84-7.89,5.31-9.63.63-.25,8.46-2.31,8.46-2.4v-3.43H109.25v3.81c7.78,0,14.66,7.3,18.89,13,11.5,15.53,113.72,152.68,113.72,152.68-3.06,4.12-22.14,29.34-24.69,32.3-10.89,12.58-26.59,19.85-43,21.91-6.67.84-13.69.29-19.68-2.76s-10.8-8.85-11.53-15.54c-.67-6.19,2.19-12.4,6.56-16.83,4.18-4.23,9.79-7.22,12.68-12.42a17.22,17.22,0,0,0-.43-16.57,22.56,22.56,0,0,0-13.51-10.13c-9.9-2.81-21.11.64-28.31,8s-10.45,18.16-9.29,28.39,6.48,19.77,14,26.8a59.36,59.36,0,0,0,27.15,14,72.52,72.52,0,0,0,46.57-5.2c12.54-5.83,21.57-14.87,30.1-25.53,2.42-3,30.26-41.51,58.78-81,18.54,22.32,37.11,44.25,46,53.44,3.2,3.8,7.87,10.32,4.5,15.3-2.78,4.11-7.24,4.29-11.3,2.62-4.62-1.91-35.38-41.59-38.75-45.43-.13-.15-34,45.72-34,45.72s19.44,39.75,53.78,43.07,52.67-40.51,37.62-56.61c-4.72-5-31.57-36.25-54.38-62.88C321,229.54,350.89,188,350.89,188L346,188l-57.5,80.86c-17-19.81-31.13-36.42-31.28-36.61-4.82-6.86-33.19-38.59-36.17-50.12-8.65-33.4,16.65-65,47.86-74.1,12.62-3.67,27.27-5,39.67.22,14.35,6.08,21,21.5,20.85,36.48-.11,9.2-3.66,16.7,1.79,25.11a21.28,21.28,0,0,0,20.57,9.52C366.8,177.58,382.86,164.49,378.79,145.88Z"/></svg>